Coordinates
version=1
nRows=21
nColumns=12
inDegrees=yes

Units are S.I. units (second, meters, Newtons, ...)
Angles are in degrees

endheader
time	SC_y	SC_z	SC_x	AC_y	AC_z	AC_x	GH_y	GH_z	GH_yy	EL_x	PS_y
       0.0              -35.72          33.78          82.43           38.8         -3.077         -10.42         -99.95          28.67         -8.714          132.8          76.52
   0.03752              -35.72          33.79          82.42           38.8         -3.077         -10.42         -99.95          28.66         -8.728          132.8          76.52
   0.07505              -35.72          33.79          82.41           38.8         -3.077         -10.42         -99.95          28.66         -8.742          132.8          76.53
    0.1126              -35.71          33.79           82.4           38.8         -3.077         -10.41         -99.95          28.66         -8.757          132.8          76.54
    0.1501              -35.71          33.79          82.38           38.8         -3.077         -10.41         -99.96          28.66         -8.774          132.8          76.54
    0.1876              -35.71          33.79          82.37           38.8         -3.078         -10.41         -99.96          28.66         -8.791          132.8          76.55
    0.2251              -35.71          33.79          82.35           38.8         -3.078          -10.4         -99.96          28.66          -8.81          132.8          76.56
    0.2627               -35.7          33.79          82.34           38.8         -3.078          -10.4         -99.96          28.65          -8.83          132.8          76.57
    0.3002               -35.7          33.79          82.32           38.8         -3.078          -10.4         -99.97          28.65         -8.851          132.8          76.58
    0.3377              -35.69          33.79           82.3           38.8         -3.078         -10.39         -99.97          28.65         -8.874          132.8          76.59
    0.3752              -35.69          33.79          82.28           38.8         -3.078         -10.39         -99.97          28.65         -8.898          132.8           76.6
    0.4128              -35.69           33.8          82.26           38.8         -3.078         -10.38         -99.98          28.64         -8.925          132.8          76.61
    0.4503              -35.68           33.8          82.23           38.8         -3.079         -10.38         -99.98          28.64         -8.953          132.8          76.62
    0.4878              -35.68           33.8           82.2           38.8         -3.079         -10.37         -99.98          28.64         -8.984          132.8          76.64
    0.5253              -35.67           33.8          82.18           38.8         -3.079         -10.37         -99.99          28.64         -9.017          132.8          76.65
    0.5629              -35.67           33.8          82.15           38.8         -3.079         -10.36         -99.99          28.63         -9.053          132.8          76.67
    0.6004              -35.66           33.8          82.11           38.8          -3.08         -10.35         -100.0          28.63         -9.092          132.8          76.69
    0.6379              -35.65          33.81          82.08          38.79          -3.08         -10.35         -100.0          28.62         -9.135          132.8          76.71
    0.6754              -35.64          33.81          82.04          38.79          -3.08         -10.34         -100.0          28.62         -9.181          132.8          76.73
     0.713              -35.64          33.81          81.99          38.79          -3.08         -10.33         -100.0          28.61         -9.232          132.8          76.75
    0.7505              -35.63          33.81          81.95          38.79         -3.081         -10.32         -100.0          28.61         -9.288          132.8          76.78
